<?xml version="1.0" encoding="UTF-8"?>
<!DOCTYPE svg PUBLIC "-//W3C//DTD SVG 1.1//EN" "http://www.w3.org/Graphics/SVG/1.1/DTD/svg11.dtd">
<!-- Creator: CorelDRAW 2020 (64 Bit) -->
<svg xmlns="http://www.w3.org/2000/svg" xml:space="preserve" width="12.7mm" height="12.7mm" version="1.1" style="shape-rendering:geometricPrecision; text-rendering:geometricPrecision; image-rendering:optimizeQuality; fill-rule:evenodd; clip-rule:evenodd"
viewBox="0 0 1255.9 1255.9"
 xmlns:xlink="http://www.w3.org/1999/xlink"
 xmlns:xodm="http://www.corel.com/coreldraw/odm/2003">
 <defs>
  <style type="text/css">
   <![CDATA[
    .fil0 {fill:#3E4095}
    .fil1 {fill:#FEFEFE;fill-rule:nonzero}
   ]]>
  </style>
 </defs>
 <g id="Camada_x0020_1">
  <metadata id="CorelCorpID_0Corel-Layer"/>
  <g id="_2249730425920">
   <rect class="fil0" width="1255.9" height="1255.9" rx="98.89" ry="98.89"/>
   <path class="fil1" d="M420.57 772.51c0,-10.84 -0.97,-17.24 -2.91,-19.16 -1.93,-1.94 -8.71,-1.75 -20.33,0.57 -6.19,1.55 -12.59,2.91 -19.16,4.07 -6.59,1.16 -12.97,2.51 -19.17,4.06 -24.01,5.42 -47.64,10.84 -70.87,16.27 -23.23,5.42 -46.85,10.84 -70.86,16.26 -13.17,3.11 -22.47,11.23 -27.89,24.41 -9.3,26.33 -18.01,52.47 -26.15,78.42 -8.13,25.95 -16.46,51.7 -24.98,77.26 -4.64,14.71 -9.68,28.27 -15.1,40.66 -4.65,13.17 -11.81,22.07 -21.49,26.72 -9.68,4.65 -21.11,6.59 -34.28,5.81 -22.47,-1.55 -30.21,-12.79 -23.24,-33.69 10.84,-37.18 20.92,-74.75 30.21,-112.7 9.3,-37.95 20.52,-75.51 33.69,-112.69 20.13,-53.44 41.25,-105.72 63.32,-156.85 22.07,-51.12 47.05,-101.08 74.94,-149.88 20.13,-35.63 41.63,-69.71 64.48,-102.24 22.85,-32.52 48.22,-63.51 76.11,-92.95 8.51,-9.3 17.42,-18.39 26.72,-27.3 9.3,-8.91 19.36,-17.24 30.21,-24.98 14.71,-11.62 30.01,-18.78 45.89,-21.49 15.87,-2.71 31.17,-1.75 45.88,2.9 14.72,4.65 28.08,12.79 40.09,24.41 12.01,11.62 21.1,25.95 27.3,42.99 3.87,12.39 6.77,24.78 8.71,37.17 1.94,12.4 3.29,25.18 4.06,38.34 2.32,29.44 2.13,58.1 -0.58,85.98 -2.71,27.88 -6,56.15 -9.87,84.81 -10.08,62.75 -19.76,125.1 -29.05,187.06 -9.29,61.96 -17.04,124.31 -23.23,187.05 -1.55,16.27 -3.11,32.73 -4.65,49.39 -1.55,16.65 0.39,33.49 5.8,50.53 2.32,10.08 -1.94,18.59 -12.78,25.56 -27.12,17.82 -55.38,20.13 -84.82,6.97 -6.19,-2.32 -11.04,-6 -14.52,-11.04 -3.49,-5.03 -6.4,-10.65 -8.72,-16.85 -5.42,-17.81 -8.51,-34.85 -9.29,-51.12 -0.78,-15.5 -1.75,-31.37 -2.91,-47.64 -1.17,-16.27 -1.35,-32.92 -0.58,-49.96l0 -87.14zm-178.92 -77.85c3.88,1.55 7.36,1.94 10.45,1.17 3.11,-0.77 6.59,-1.55 10.46,-2.32 24.01,-3.88 48.21,-7.36 72.61,-10.45 24.4,-3.11 48.99,-4.65 73.77,-4.65 9.3,0 14.71,-0.78 16.27,-2.32 1.55,-1.55 3.1,-6.97 4.65,-16.27 8.52,-52.67 16.07,-104.95 22.66,-156.85 6.59,-51.9 14.13,-103.79 22.66,-155.68 1.55,-3.88 0.39,-7.37 -3.48,-10.46 -53.45,50.34 -97.99,105.73 -133.62,166.14 -35.63,60.41 -67.77,124.31 -96.43,191.7zm562.33 -3.48c2.32,-4.65 4.85,-9.1 7.56,-13.36 2.71,-4.26 5.62,-8.71 8.71,-13.36 45.7,-68.94 91.79,-136.52 138.26,-202.74 46.48,-66.23 94.88,-132.25 145.23,-198.1 3.1,-3.87 6.2,-7.74 9.3,-11.61 3.1,-3.88 6.2,-7.75 9.3,-11.62 6.2,-9.3 13.36,-14.91 21.49,-16.85 8.14,-1.94 16.85,-1.35 26.15,1.74 13.16,3.88 23.62,9.68 31.37,17.43 7.74,6.97 12.01,13.36 12.78,19.16 0.78,5.81 -1.54,12.97 -6.96,21.5 -24.02,37.17 -47.83,74.36 -71.46,111.54 -23.62,37.17 -47.05,74.36 -70.29,111.53 -34.86,56.55 -68.55,113.29 -101.08,170.21 -32.53,56.93 -62.75,115.6 -90.62,176.02 -9.3,20.92 -18.79,41.82 -28.47,62.74 -9.68,20.92 -19.17,41.83 -28.46,62.75 -10.08,25.55 -29.05,41.43 -56.93,47.64 -13.17,3.1 -25.76,4.65 -37.77,4.65 -12.01,0 -24.59,-1.94 -37.76,-5.81 -20.13,-6.97 -32.53,-20.92 -37.18,-41.82 -8.51,-37.95 -12.78,-73.98 -12.78,-108.06 -1.55,-49.57 -1.35,-98.75 0.58,-147.55 1.94,-48.79 4.06,-97.98 6.39,-147.55 1.55,-29.43 3.1,-58.87 4.65,-88.3 1.55,-29.43 3.48,-58.87 5.8,-88.3 2.32,-27.89 4.85,-55.76 7.56,-83.65 2.71,-27.89 4.85,-55.77 6.39,-83.65 0.77,-18.59 11.62,-27.89 32.53,-27.89 17.81,0.77 34.28,6.77 49.38,18.01 15.1,11.23 25.37,25.75 30.78,43.57 6.2,17.81 10.08,35.82 11.62,54.02 1.55,18.21 3.11,36.21 4.65,54.02 3.11,36.41 4.65,72.43 4.65,108.06 0,35.63 -0.77,71.65 -2.32,108.05 0,16.27 0,32.34 0,48.22 0,15.87 0.78,31.95 2.32,48.22 0.78,0 1.35,0.19 1.75,0.57 0.39,0.39 1.35,0.58 2.9,0.58z"/>
  </g>
 </g>
</svg>
